<svg width="16" height="18" viewBox="0 0 16 18" fill="none" xmlns="http://www.w3.org/2000/svg">
<path d="M15.41 13.3914C15.3385 13.0097 14.9711 12.7582 14.5894 12.8298C14.2077 12.9013 13.9562 13.2687 14.0277 13.6504C14.0808 13.9335 13.9563 14.1353 13.8774 14.2304C13.7987 14.3253 13.6238 14.4844 13.3367 14.4844H2.66358C2.37653 14.4844 2.20159 14.3253 2.12288 14.2304C2.04399 14.1353 1.9195 13.9335 1.97259 13.6504C2.17203 12.5861 2.57221 11.8861 2.95921 11.2091C3.42921 10.3871 3.91521 9.53694 3.91521 8.22653V7.17184C3.91521 4.95464 5.71743 3.12634 7.93364 3.09417H8.06657C10.2753 3.12627 12.0715 4.95457 12.0715 7.17188V8.22656C12.0715 9.34182 12.4363 10.1093 12.7783 10.741C12.9055 10.9762 13.1474 11.1096 13.3972 11.1096C13.5103 11.1096 13.6249 11.0823 13.7313 11.0247C14.0728 10.8399 14.1998 10.4132 14.015 10.0717C13.6747 9.44304 13.4777 8.93957 13.4777 8.22656V7.17188C13.4777 5.72481 12.9173 4.35807 11.8994 3.32346C11.0272 2.43678 9.90725 1.88346 8.6965 1.73074V0.703125C8.6965 0.314789 8.38171 0 7.99337 0C7.60504 0 7.29025 0.314789 7.29025 0.703125V1.73282C4.60227 2.08157 2.509 4.40089 2.509 7.17188V8.22656C2.509 9.16337 2.16893 9.75818 1.73841 10.5112C1.31428 11.2532 0.833523 12.0941 0.590382 13.3914C0.474332 14.0107 0.638511 14.6438 1.04084 15.1286C1.44278 15.6129 2.03428 15.8906 2.66358 15.8906H5.89757C5.89757 17.0537 6.84383 18 8.00694 18C9.17005 18 10.1163 17.0537 10.1163 15.8906H13.3367C13.966 15.8906 14.5575 15.6129 14.9595 15.1286C15.3618 14.6439 15.526 14.0107 15.41 13.3914ZM8.00694 16.5938C7.61924 16.5938 7.30382 16.2783 7.30382 15.8906H8.71007C8.71007 16.2783 8.39468 16.5938 8.00694 16.5938Z" fill="white"/>
</svg>
