<svg width="18" height="18" viewBox="0 0 18 18" fill="none" xmlns="http://www.w3.org/2000/svg">
<path d="M10.6172 0C6.54631 0 3.23438 3.31193 3.23438 7.38281C3.23438 9.17381 3.87542 10.8179 4.94013 12.0977L0.207637 16.798C-0.0678826 17.0717 -0.0693943 17.5168 0.204227 17.7924C0.341688 17.9307 0.522391 18 0.703129 18C0.88225 18 1.06144 17.9319 1.19859 17.7957L5.93754 13.089C7.21224 14.1363 8.84261 14.7656 10.6172 14.7656C11.8837 14.7656 13.1335 14.4393 14.2314 13.8218C14.5699 13.6315 14.6899 13.2028 14.4996 12.8643C14.3092 12.5259 13.8805 12.4057 13.5421 12.5961C12.6542 13.0955 11.6428 13.3594 10.6172 13.3594C7.32172 13.3594 4.64063 10.6783 4.64063 7.38281C4.64063 4.08734 7.32172 1.40625 10.6172 1.40625C13.9127 1.40625 16.5938 4.08734 16.5938 7.38281C16.5938 8.42101 16.3236 9.44328 15.8127 10.3391C15.6203 10.6765 15.7378 11.1059 16.0751 11.2983C16.4124 11.4906 16.8418 11.3732 17.0342 11.0359C17.666 9.92813 18 8.66493 18 7.38281C18 3.31193 14.6881 0 10.6172 0Z" fill="white"/>
</svg>
