<svg width="40" height="50" viewBox="0 0 40 50" fill="none" xmlns="http://www.w3.org/2000/svg">
<path d="M18.3835 32.6172V32.3672H18.1335H13.2507C12.3103 32.3672 11.5475 31.6048 11.5475 30.6641C11.5475 29.7234 12.3103 28.9609 13.2507 28.9609H18.1335H18.3835V28.7109V23.8281C18.3835 22.8874 19.1462 22.125 20.0866 22.125C21.0273 22.125 21.7897 22.8874 21.7897 23.8281V28.7109V28.9609H22.0397H26.9225C27.8633 28.9609 28.6257 29.7233 28.6257 30.6641C28.6257 31.6048 27.8633 32.3672 26.9225 32.3672H22.0397H21.7897V32.6172V37.5C21.7897 38.4407 21.0273 39.2031 20.0866 39.2031C19.1462 39.2031 18.3835 38.4407 18.3835 37.5V32.6172ZM25.8483 8.53906H25.5983V8.78906V9.76562C25.5983 12.8586 23.0819 15.375 19.9889 15.375C16.8963 15.375 14.3796 12.8586 14.3796 9.76562V8.78906V8.53906H14.1296H7.98828C5.69603 8.53906 3.83203 10.4035 3.83203 12.6953V42.1875C3.83203 44.4793 5.69603 46.3438 7.98828 46.3438H32.0007C34.2929 46.3438 36.1569 44.4793 36.1569 42.1875C36.1569 41.2468 36.9197 40.4844 37.86 40.4844C38.8008 40.4844 39.5632 41.2468 39.5632 42.1875C39.5632 46.3574 36.1705 49.75 32.0007 49.75H7.98828C3.81841 49.75 0.425781 46.3574 0.425781 42.1875V12.6953C0.425781 8.52545 3.81841 5.13281 7.98828 5.13281H14.1299H14.3799V4.88281V1.95312C14.3799 1.0124 15.1423 0.25 16.0831 0.25H23.8956C24.8359 0.25 25.5987 1.01243 25.5987 1.95312V4.88281V5.13281H25.8487H32.001C36.1705 5.13281 39.5635 8.52545 39.5635 12.6953V32.5195C39.5635 33.4602 38.8008 34.2227 37.8604 34.2227C36.9196 34.2227 36.1569 33.4602 36.1569 32.5195V12.6953C36.1569 10.4035 34.2929 8.53906 32.0007 8.53906H25.8483ZM22.1921 3.90625V3.65625H21.9421H18.0358H17.7858V3.90625V9.76562C17.7858 10.9806 18.774 11.9688 19.9889 11.9688C21.2039 11.9688 22.1921 10.9806 22.1921 9.76562V3.90625Z" fill="white" stroke="#50CAFF" stroke-width="0.5"/>
</svg>
