<svg width="46" height="50" viewBox="0 0 46 50" fill="none" xmlns="http://www.w3.org/2000/svg">
<path d="M34.1328 38.5195H33.8828V38.7695V40.7227C33.8828 41.6634 33.1204 42.4258 32.1797 42.4258C31.239 42.4258 30.4766 41.6634 30.4766 40.7227V38.7695V38.5195H30.2266H28.2734C27.3327 38.5195 26.5703 37.7571 26.5703 36.8164C26.5703 35.8757 27.3327 35.1133 28.2734 35.1133H30.2266H30.4766V34.8633V32.9102C30.4766 31.9694 31.239 31.207 32.1797 31.207C33.1204 31.207 33.8828 31.9694 33.8828 32.9102V34.8633V35.1133H34.1328H36.0859C37.0267 35.1133 37.7891 35.8757 37.7891 36.8164C37.7891 37.7571 37.0267 38.5195 36.0859 38.5195H34.1328ZM3.02794 8.94446L3.02795 8.94445L9.47745 2.43735C9.47745 2.43735 9.47745 2.43734 9.47746 2.43734C10.8549 1.04771 12.7685 0.25 14.7255 0.25H32.462C36.6315 0.25 40.0245 3.64264 40.0245 7.8125V18.1641C40.0245 19.1048 39.2617 19.8672 38.3214 19.8672C37.3806 19.8672 36.6182 19.1048 36.6182 18.1641V7.8125C36.6182 5.52065 34.7538 3.65625 32.462 3.65625H14.7255C13.6701 3.65625 12.6395 4.0857 11.8968 4.83537C11.8968 4.83539 11.8967 4.8354 11.8967 4.83541L5.4473 11.3421C5.11094 11.6813 4.84342 12.0712 4.65079 12.494L4.48963 12.8477H4.87828H10.3047C12.0583 12.8477 13.4844 11.4212 13.4844 9.66797C13.4844 8.72724 14.2468 7.96484 15.1875 7.96484C16.1282 7.96484 16.8906 8.72724 16.8906 9.66797C16.8906 13.2992 13.9359 16.2539 10.3047 16.2539H4.54297H4.29297V16.5039V42.1875C4.29297 44.4794 6.15737 46.3438 8.44922 46.3438H16.2617C17.2024 46.3438 17.9648 47.1062 17.9648 48.0469C17.9648 48.9876 17.2024 49.75 16.2617 49.75H8.44922C4.27935 49.75 0.886719 46.3574 0.886719 42.1875V14.146C0.886719 12.1841 1.64688 10.3377 3.02794 8.94446ZM19.2461 36.8164C19.2461 29.6852 25.0485 23.8828 32.1797 23.8828C39.3109 23.8828 45.1133 29.6852 45.1133 36.8164C45.1133 43.9476 39.3109 49.75 32.1797 49.75C25.0485 49.75 19.2461 43.9476 19.2461 36.8164ZM22.6523 36.8164C22.6523 42.07 26.9261 46.3438 32.1797 46.3438C37.4333 46.3438 41.707 42.07 41.707 36.8164C41.707 31.5628 37.4333 27.2891 32.1797 27.2891C26.9261 27.2891 22.6523 31.5628 22.6523 36.8164Z" fill="#EBE7FF" stroke="white" stroke-width="0.5"/>
</svg>
