<svg width="50" height="50" viewBox="0 0 50 50" fill="none" xmlns="http://www.w3.org/2000/svg">
<path d="M3.17969 3.90625V3.65625H2.92969H1.95312C1.0124 3.65625 0.25 2.89385 0.25 1.95312C0.25 1.0124 1.0124 0.25 1.95312 0.25H20.9961C21.9368 0.25 22.6992 1.0124 22.6992 1.95312C22.6992 2.89385 21.9368 3.65625 20.9961 3.65625H20.0195H19.7695V3.90625V8.78906C19.7695 9.72979 19.0071 10.4922 18.0664 10.4922C17.1257 10.4922 16.3633 9.72979 16.3633 8.78906V3.90625V3.65625H16.1133H6.83594H6.58594V3.90625V16.6016V16.8516H6.83594H18.0664C19.0071 16.8516 19.7695 17.614 19.7695 18.5547V41.4551C19.7695 46.0285 16.0481 49.75 11.4746 49.75C6.90115 49.75 3.17969 46.0285 3.17969 41.4551V3.90625ZM16.3633 20.5078V20.2578H16.1133H6.83594H6.58594V20.5078V41.4551C6.58594 44.1509 8.77878 46.3438 11.4746 46.3438C14.1704 46.3438 16.3633 44.1509 16.3633 41.4551V20.5078ZM30.2305 3.90625V3.65625H29.9805H29.0039C28.0632 3.65625 27.3008 2.89385 27.3008 1.95312C27.3008 1.0124 28.0632 0.25 29.0039 0.25H48.0469C48.9876 0.25 49.75 1.0124 49.75 1.95312C49.75 2.89385 48.9876 3.65625 48.0469 3.65625H47.0703H46.8203V3.90625V14.6484C46.8203 15.5892 46.0579 16.3516 45.1172 16.3516C44.1765 16.3516 43.4141 15.5892 43.4141 14.6484V3.90625V3.65625H43.1641H33.8867H33.6367V3.90625V22.4609V22.7109H33.8867H45.1172C46.0579 22.7109 46.8203 23.4733 46.8203 24.4141V41.4551C46.8203 46.0285 43.0989 49.75 38.5254 49.75C33.9519 49.75 30.2305 46.0285 30.2305 41.4551V3.90625ZM43.4141 26.3672V26.1172H43.1641H33.8867H33.6367V26.3672V41.4551C33.6367 44.1509 35.8296 46.3438 38.5254 46.3438C41.2212 46.3438 43.4141 44.1509 43.4141 41.4551V26.3672Z" fill="#EBE7FF" stroke="white" stroke-width="0.5"/>
</svg>
