<svg width="16" height="16" viewBox="0 0 16 16" fill="none" xmlns="http://www.w3.org/2000/svg">
<rect width="16" height="16" rx="5" fill="white"/>
<g clip-path="url(#clip0)">
<path d="M8.00187 10.1996L4.63147 6.8292L4.63147 6.8292C4.45269 6.65044 4.16285 6.65044 3.98407 6.8292L3.98403 6.82923C3.80533 7.00802 3.80531 7.29782 3.98404 7.4766L3.98406 7.47662L7.67816 11.1707L7.67818 11.1707C7.85695 11.3495 8.14678 11.3495 8.32556 11.1707L8.32557 11.1707L12.0197 7.47662L12.0197 7.47664L12.0215 7.47476C12.1972 7.29287 12.1921 7.00303 12.0102 6.82737L12.0102 6.82737C11.8328 6.65603 11.5515 6.65602 11.3741 6.82738L11.3741 6.82736L11.3723 6.8292L8.00187 10.1996Z" fill="#50CAFF" stroke="#50CAFF" stroke-width="0.3"/>
</g>
<defs>
<clipPath id="clip0">
<rect width="10" height="10" fill="white" transform="translate(3 14) rotate(-90)"/>
</clipPath>
</defs>
</svg>
