<svg width="18" height="16" viewBox="0 0 18 16" fill="none" xmlns="http://www.w3.org/2000/svg">
<path d="M17.2969 6.8047C17.6852 6.8047 18 6.48991 18 6.10158V0.757825C18 0.537009 17.8963 0.329024 17.7199 0.196204C17.5435 0.0633487 17.315 0.0210557 17.1028 0.0820166C16.2884 0.315911 15.2503 0.249923 13.9361 0.166321C13.1132 0.114009 12.1805 0.0547002 11.1094 0.0547002C10.27 0.0547002 9.51579 0.424825 9.00001 1.00986C8.48423 0.424825 7.73006 0.0547002 6.89063 0.0547002C5.81953 0.0547002 4.88683 0.114009 4.06393 0.166356C2.74976 0.249923 1.71166 0.315911 0.897267 0.0820518C0.684994 0.0210908 0.456513 0.0633838 0.280099 0.196239C0.10372 0.32906 9.55296e-06 0.537044 9.55296e-06 0.757825V12.4225C-0.00192404 13.1751 0.289732 13.883 0.821189 14.4159C1.35272 14.9488 2.05988 15.2422 2.81251 15.2422H8.29688C8.29688 15.6305 8.61167 15.9453 9.00001 15.9453C9.38835 15.9453 9.70313 15.6305 9.70313 15.2422H15.1875C16.7383 15.2422 18 13.9805 18 12.4297V9.6172C18 9.22886 17.6852 8.91408 17.2969 8.91408C16.9085 8.91408 16.5938 9.22886 16.5938 9.6172C16.5938 10.3926 15.9629 11.0235 15.1875 11.0235H10.0547C9.93432 11.0235 9.81676 11.0357 9.70313 11.0588V2.8672C9.70313 2.09179 10.334 1.46095 11.1094 1.46095C12.1358 1.46095 13.0448 1.51878 13.8468 1.56976C14.8957 1.63645 15.785 1.69298 16.5938 1.60523V6.10158C16.5938 6.48991 16.9085 6.8047 17.2969 6.8047ZM8.29688 13.836H2.81251C2.4362 13.836 2.0826 13.6892 1.81685 13.4228C1.5511 13.1564 1.40531 12.8024 1.40626 12.4243V12.0513C1.82029 12.2915 2.30042 12.4297 2.81251 12.4297H7.94532C8.13917 12.4297 8.29688 12.5874 8.29688 12.7813V13.836ZM8.29688 11.0588C8.18326 11.0357 8.0657 11.0235 7.94532 11.0235H2.81251C2.0371 11.0235 1.40626 10.3926 1.40626 9.6172V1.60527C2.21496 1.69298 3.10438 1.63645 4.15319 1.56976C4.95521 1.51878 5.86421 1.46095 6.89063 1.46095C7.66604 1.46095 8.29688 2.09179 8.29688 2.8672V11.0588ZM10.0547 12.4297H15.1875C15.6996 12.4297 16.1797 12.2915 16.5938 12.0513V12.4297C16.5938 13.2051 15.9629 13.836 15.1875 13.836H9.70313V12.7813C9.70313 12.5874 9.86088 12.4297 10.0547 12.4297Z" fill="white"/>
</svg>
