<svg width="18" height="18" viewBox="0 0 18 18" fill="none" xmlns="http://www.w3.org/2000/svg">
<path d="M18 5.95102C18 8.41251 16.2473 10.4759 14.9289 11.8139C14.7913 11.9535 14.6096 12.0234 14.4279 12.0234C14.2497 12.0234 14.0716 11.9561 13.9345 11.8212C13.6579 11.5486 13.6546 11.1033 13.9272 10.8269C15.7464 8.98064 16.5938 7.43129 16.5938 5.95102C16.5938 3.77188 15.1769 2.25 13.1484 2.25C11.8294 2.25 10.8555 2.74617 10.2535 3.72491C9.77591 4.50179 9.70148 5.31038 9.70079 5.31848C9.67264 5.68474 9.36722 5.96599 8.99986 5.96599C8.63251 5.96599 8.32709 5.68158 8.29893 5.31532C8.29852 5.31038 8.22409 4.50179 7.74632 3.72491C7.14455 2.74617 6.17061 2.25 4.85156 2.25C2.82307 2.25 1.40625 3.77188 1.40625 5.95102C1.40625 6.93375 1.7791 7.94421 2.54471 9.03516H4.21367L5.38014 6.65181C5.50017 6.40668 5.75217 6.25218 6.02422 6.25795C6.29723 6.26276 6.54263 6.42522 6.65387 6.67447L8.09047 9.89456L9.00536 8.08511C9.12415 7.85028 9.36406 7.70142 9.62718 7.69922H9.63295C9.89388 7.69922 10.1334 7.84369 10.2551 8.07495L10.7604 9.03516H12.3398C12.7282 9.03516 13.043 9.34991 13.043 9.73828C13.043 10.1266 12.7282 10.4414 12.3398 10.4414H10.3359C10.0749 10.4414 9.83537 10.2968 9.7137 10.0658L9.64531 9.93576L8.67824 11.8485C8.55849 12.0855 8.31555 12.2344 8.05092 12.2344C8.04515 12.2344 8.03952 12.2342 8.03375 12.2341C7.76253 12.2276 7.51932 12.0655 7.40863 11.8177L5.98219 8.62056L5.28387 10.0474C5.16591 10.2886 4.92078 10.4414 4.6523 10.4414H0.703125C0.314758 10.4414 0 10.1266 0 9.73828C0 9.34991 0.314758 9.03516 0.703125 9.03516H0.881378C0.289764 7.98871 0 6.97192 0 5.95102C0 4.4577 0.490265 3.17189 1.41792 2.23256C2.30219 1.3369 3.52167 0.84375 4.85156 0.84375C7.17668 0.84375 8.37886 2.04016 8.97789 3.04376C8.98531 3.05612 8.99272 3.06862 9 3.08112C9.00728 3.06862 9.01469 3.05612 9.02211 3.04376C9.62114 2.04016 10.8233 0.84375 13.1484 0.84375C14.4783 0.84375 15.6978 1.3369 16.5821 2.23256C17.5097 3.17189 18 4.4577 18 5.95102ZM11.4542 13.1038L11.4381 13.118C10.5444 13.902 9.69008 14.6522 9 15.387C8.30992 14.6521 7.45546 13.902 6.56172 13.1178C6.08574 12.7003 5.59355 12.2686 5.11647 11.8299C4.83055 11.5671 4.38574 11.5858 4.12303 11.8717C3.86018 12.1575 3.87886 12.6023 4.16478 12.8651C4.65395 13.3149 5.15231 13.7521 5.63434 14.175C6.73572 15.1412 7.77612 16.0539 8.45233 16.894C8.45302 16.8949 8.45384 16.8957 8.45453 16.8967C8.45769 16.9005 8.46098 16.9043 8.46428 16.908C8.47691 16.9229 8.48996 16.9373 8.50369 16.9511C8.50452 16.9519 8.5052 16.9527 8.50589 16.9534C8.52251 16.9699 8.53981 16.9851 8.55766 16.9996C8.55821 17 8.55862 17.0004 8.55917 17.0008C8.55945 17.0012 8.55986 17.0013 8.56013 17.0016C8.57565 17.0141 8.59158 17.0258 8.60806 17.0368C8.60902 17.0375 8.61012 17.0381 8.61108 17.0388C8.6266 17.0491 8.64253 17.0589 8.65874 17.0678C8.65984 17.0685 8.66093 17.0692 8.66217 17.0697C8.67783 17.0784 8.69376 17.0862 8.7101 17.0936C8.71408 17.0954 8.7182 17.0971 8.72218 17.0988C8.73537 17.1045 8.74869 17.1098 8.76215 17.1146C8.76572 17.1159 8.76929 17.1174 8.77272 17.1186C8.78783 17.1237 8.80307 17.1281 8.81845 17.1322C8.82449 17.1339 8.8304 17.1352 8.83644 17.1367C8.84894 17.1398 8.86157 17.1424 8.87434 17.1447C8.87929 17.1455 8.88423 17.1465 8.88918 17.1473C8.90401 17.1497 8.91898 17.1514 8.93381 17.153C8.93916 17.1534 8.94438 17.1538 8.94974 17.1542C8.96581 17.1554 8.98187 17.1561 8.99794 17.1561C8.99849 17.1561 8.99918 17.1562 8.99973 17.1562C9.00027 17.1562 9.00165 17.1561 9.0022 17.1561C9.0184 17.1561 9.03433 17.1553 9.0504 17.1542C9.05576 17.1538 9.06111 17.1534 9.06633 17.153C9.0813 17.1514 9.09599 17.1498 9.11082 17.1473C9.11591 17.1466 9.12099 17.1455 9.12621 17.1447C9.1387 17.1424 9.1512 17.1398 9.1637 17.1367C9.16974 17.1354 9.17578 17.1339 9.18182 17.1322C9.19707 17.1281 9.21231 17.1237 9.22728 17.1186C9.23099 17.1174 9.2347 17.1159 9.2384 17.1145C9.25159 17.1098 9.26477 17.1046 9.27768 17.099C9.28194 17.0972 9.28619 17.0954 9.29031 17.0935C9.30638 17.0862 9.32231 17.0784 9.33783 17.0699C9.3392 17.0692 9.34058 17.0684 9.34195 17.0675C9.35788 17.0587 9.3734 17.0491 9.38878 17.039C9.39001 17.0383 9.39125 17.0375 9.39235 17.0366C9.40869 17.0258 9.42448 17.0141 9.44 17.0016C9.44028 17.0013 9.44069 17.0012 9.4411 17.0008C9.44165 17.0004 9.44206 17 9.44261 16.9994C9.46033 16.985 9.47763 16.9698 9.49425 16.9534C9.49507 16.9527 9.49576 16.9518 9.49658 16.9509C9.51018 16.9373 9.52336 16.9229 9.536 16.908C9.53915 16.9043 9.54245 16.9005 9.54561 16.8967C9.5463 16.8957 9.54712 16.8949 9.54794 16.894C10.224 16.0539 11.2643 15.1412 12.3657 14.1751L12.3819 14.1608C12.6737 13.9048 12.7028 13.4606 12.4467 13.1686C12.1904 12.8768 11.7462 12.8477 11.4542 13.1038Z" fill="white"/>
</svg>
