<svg width="18" height="18" viewBox="0 0 18 18" fill="none" xmlns="http://www.w3.org/2000/svg">
<path d="M16.4716 10.778C16.3262 10.4179 15.9162 10.2441 15.5562 10.3896C15.1962 10.5352 15.0224 10.945 15.1679 11.3051L15.9959 13.3535L13.5365 12.2694C13.3585 12.1908 13.1559 12.1896 12.977 12.266C12.1364 12.6245 11.2359 12.8064 10.3007 12.8064C6.53638 12.8064 4.00773 9.85913 4.00773 7.10637C4.00773 3.96332 6.83081 1.40625 10.3007 1.40625C13.7706 1.40625 16.5937 3.96332 16.5937 7.10637C16.5937 7.3515 16.5709 7.64511 16.531 7.9118C16.4738 8.29591 16.7387 8.65379 17.1227 8.71106C17.5068 8.76833 17.8647 8.50342 17.9219 8.11931C17.9722 7.78217 17.9999 7.42236 17.9999 7.10637C17.9999 5.19626 17.1911 3.40411 15.7223 2.05994C14.271 0.731552 12.3457 0 10.3007 0C8.25574 0 6.33038 0.731552 4.87909 2.05994C3.56663 3.26115 2.78166 4.82025 2.62936 6.5013C0.978529 7.59457 -7.80487e-05 9.34634 -7.80487e-05 11.2332C-7.80487e-05 12.4119 0.37126 13.5305 1.07823 14.4929L0.0511457 17.0333C-0.0561083 17.2987 0.00816169 17.6024 0.213606 17.8017C0.347502 17.9315 0.524107 18 0.703184 18C0.798903 18 0.895445 17.9805 0.986632 17.9403L3.94786 16.6349C4.69273 16.9122 5.48018 17.0526 6.29289 17.0526C6.31047 17.0526 6.32777 17.0512 6.34494 17.05C7.52048 17.041 8.66333 16.7318 9.65306 16.1532C10.5397 15.6349 11.269 14.9227 11.7803 14.0819C12.2793 13.9922 12.7673 13.8568 13.2409 13.6758L17.0132 15.3387C17.1044 15.3789 17.2008 15.3984 17.2967 15.3984C17.4757 15.3984 17.6522 15.3299 17.7861 15.2001C17.9917 15.0009 18.0558 14.6971 17.9486 14.4318L16.4716 10.778ZM6.29289 15.6445C6.28328 15.6445 6.27394 15.6455 6.26446 15.6459C5.54651 15.6423 4.85547 15.5012 4.21002 15.2258C4.03108 15.1495 3.82852 15.1507 3.65054 15.2291L2.00397 15.955L2.53515 14.6411C2.63334 14.3981 2.5883 14.1209 2.41829 13.9213C1.75622 13.1446 1.40617 12.215 1.40617 11.2332C1.40617 10.1096 1.87886 9.04504 2.70585 8.23782C2.96335 9.64133 3.68982 10.984 4.78584 12.0388C6.14952 13.3513 7.95347 14.1117 9.90121 14.2033C8.98674 15.1033 7.67813 15.6445 6.29289 15.6445ZM11.3202 7.76953C11.7086 7.76953 12.0234 8.08429 12.0234 8.47266C12.0234 8.86102 11.7086 9.17578 11.3202 9.17578H7.10148C6.71312 9.17578 6.39836 8.86102 6.39836 8.47266C6.39836 8.08429 6.71312 7.76953 7.10148 7.76953H11.3202ZM13.4296 6.36328H7.10148C6.71312 6.36328 6.39836 6.04852 6.39836 5.66016C6.39836 5.27179 6.71312 4.95703 7.10148 4.95703H13.4296C13.818 4.95703 14.1327 5.27179 14.1327 5.66016C14.1327 6.04852 13.818 6.36328 13.4296 6.36328Z" fill="white"/>
</svg>
